<svg id="create-icon" data-name="Layer 1" xmlns="http://www.w3.org/2000/svg" viewBox="0 0 474.09 424.28"><defs><style>.cls-1{fill:#fff;}</style></defs><g id="Layer_2" data-name="Layer 2"><path class="cls-1" d="M475.62,493.64a7.52,7.52,0,0,1-6.24-3.32l-47.64-70.9a9.38,9.38,0,0,1-.62-1.12c-2.84-6.35-27.55-62.16-28.37-81.7a24.75,24.75,0,0,1,.23-7.92l13.62-69.55a24.55,24.55,0,0,1,27.89-19.83,24.42,24.42,0,0,1,20.15,28.82l-5.06,25.82-5.67,28.52a2.23,2.23,0,0,0,4.38.88l15.92-82.82a1,1,0,0,0,0-.21,4.6,4.6,0,0,1,0-.65l0-.26-31.44-76.23a21.65,21.65,0,0,1,12.64-28.5,21.72,21.72,0,0,1,27.44,12.19L513,225c.07.13.13.26.19.39a31.69,31.69,0,0,1,2.72,11.57c1.65,36.82,4.36,99.33,4,104.34s-2.18,44.55-2.72,56l31.82,35A7.5,7.5,0,1,1,538,442.35l-33.92-37.26a7.47,7.47,0,0,1-1.94-5.4c.1-2.19,2.52-53.51,2.88-59.36.16-3.55-1.44-43.9-4.06-102.75a17.32,17.32,0,0,0-1.37-6l-40.24-78.16c-.1-.2-.2-.41-.28-.62a6.88,6.88,0,0,0-8.54-4.06,6.64,6.64,0,0,0-3.89,8.73L478.2,234a2.33,2.33,0,0,1,.11.28,16.42,16.42,0,0,1,.91,5.35,17,17,0,0,1-.28,3.74L463,326.22a17.24,17.24,0,1,1-33.83-6.68l5.67-28.5,5.06-25.8a9.45,9.45,0,0,0-7.79-11.13A9.74,9.74,0,0,0,421.32,262L407.7,331.57a9.51,9.51,0,0,0-.05,3.24,6.48,6.48,0,0,1,.08,1c.26,12,16.48,52.58,26.82,75.8L481.83,482a7.49,7.49,0,0,1-6.21,11.68Z" transform="translate(-76.96 -69.36)"/><path class="cls-1" d="M152.38,493.64a7.4,7.4,0,0,1-4.17-1.28,7.5,7.5,0,0,1-2-10.41l47.28-70.36c10.34-23.23,26.56-63.82,26.82-75.8a6.37,6.37,0,0,1,.08-1,9.51,9.51,0,0,0,0-3.24L206.67,262a9.72,9.72,0,0,0-10.8-7.9,9.44,9.44,0,0,0-7.79,11.13l5.06,25.82,5.66,28.48A17.24,17.24,0,0,1,165,326.26l-15.94-82.91a16.82,16.82,0,0,1-.27-3.68,16.35,16.35,0,0,1,.91-5.37,2.33,2.33,0,0,1,.11-.28l31.58-76.57a6.65,6.65,0,0,0-3.91-8.69,6.88,6.88,0,0,0-8.54,4.07c-.08.21-.18.41-.28.61l-40.24,78.17a17,17,0,0,0-1.37,6c-2.62,58.86-4.22,99.2-4.06,102.79.36,5.81,2.78,57.14,2.88,59.32a7.46,7.46,0,0,1-1.94,5.4L90,442.34a7.5,7.5,0,0,1-11.09-10.09l31.82-35c-.54-11.49-2.42-51.12-2.72-56s2.4-67.53,4-104.35a31.89,31.89,0,0,1,2.72-11.56c.06-.13.12-.26.19-.39l40.2-78.1a21.72,21.72,0,0,1,27.44-12.18,21.63,21.63,0,0,1,12.65,28.46L163.8,239.39a2.45,2.45,0,0,0,0,.27V240c0,.39,0,.52,0,.54l15.93,82.87a2.24,2.24,0,0,0,4.38-.92L178.42,294l-5.06-25.84a24.42,24.42,0,0,1,20.15-28.82,24.53,24.53,0,0,1,27.88,19.83L235,328.68a24.46,24.46,0,0,1,.24,7.92c-.82,19.54-25.54,75.34-28.37,81.69a7.67,7.67,0,0,1-.63,1.12l-47.64,70.91A7.48,7.48,0,0,1,152.38,493.64Z" transform="translate(-76.96 -69.36)"/><path class="cls-1" d="M316.37,319.08a48.84,48.84,0,1,1,48.83-48.84A48.9,48.9,0,0,1,316.37,319.08Zm0-82.67a33.84,33.84,0,1,0,33.83,33.83A33.88,33.88,0,0,0,316.37,236.41Z" transform="translate(-76.96 -69.36)"/><path class="cls-1" d="M420.41,217.44a7.51,7.51,0,0,1-6.5-3.74,113.34,113.34,0,0,0-11.26-16A7.5,7.5,0,1,1,414.12,188a127.64,127.64,0,0,1,12.76,18.14,7.5,7.5,0,0,1-6.47,11.27Z" transform="translate(-76.96 -69.36)"/><path class="cls-1" d="M379.31,175.29a7.43,7.43,0,0,1-3.93-1.12,113,113,0,0,0-83.94-13.89,7.5,7.5,0,0,1-3.3-14.64,129,129,0,0,1,28.23-3.13,127.41,127.41,0,0,1,66.87,18.89,7.5,7.5,0,0,1-3.93,13.89Z" transform="translate(-76.96 -69.36)"/><path class="cls-1" d="M211.74,218.47a7.51,7.51,0,0,1-6.52-11.21,128.45,128.45,0,0,1,45.93-46.87,7.5,7.5,0,1,1,7.67,12.89,113.44,113.44,0,0,0-40.56,41.39A7.49,7.49,0,0,1,211.74,218.47Z" transform="translate(-76.96 -69.36)"/><path class="cls-1" d="M316.37,398A127.21,127.21,0,0,1,247,377.5a7.5,7.5,0,0,1,8.16-12.59A112.26,112.26,0,0,0,316.37,383a7.5,7.5,0,0,1,0,15Z" transform="translate(-76.96 -69.36)"/><path class="cls-1" d="M355.48,391.47A7.5,7.5,0,0,1,353,376.88a112.05,112.05,0,0,0,20.22-9.3,7.5,7.5,0,0,1,7.58,12.95,127.67,127.67,0,0,1-22.92,10.53A7.44,7.44,0,0,1,355.48,391.47Z" transform="translate(-76.96 -69.36)"/><path class="cls-1" d="M284.65,107.67A5.7,5.7,0,1,1,279,102,5.7,5.7,0,0,1,284.65,107.67Z" transform="translate(-76.96 -69.36)"/><path class="cls-1" d="M346.47,436.15a5.7,5.7,0,1,1-5.7-5.7A5.7,5.7,0,0,1,346.47,436.15Z" transform="translate(-76.96 -69.36)"/><path class="cls-1" d="M396.75,114.5a7.1,7.1,0,1,1-7.1-7.1A7.1,7.1,0,0,1,396.75,114.5Z" transform="translate(-76.96 -69.36)"/><path class="cls-1" d="M242.2,98.26l-6.48-1.82a3.5,3.5,0,0,1-2.43-2.32l-1.89-6.2a3.62,3.62,0,0,0-6.87,0l-1.89,6.2a3.5,3.5,0,0,1-2.44,2.32l-6.48,1.82a3.38,3.38,0,0,0,0,6.57l6.48,1.81a3.53,3.53,0,0,1,2.44,2.33l1.89,6.2a3.62,3.62,0,0,0,6.87,0l1.89-6.2a3.53,3.53,0,0,1,2.43-2.33l6.48-1.81A3.38,3.38,0,0,0,242.2,98.26Z" transform="translate(-76.96 -69.36)"/><path class="cls-1" d="M441.29,82.17l-6.48-1.82A3.48,3.48,0,0,1,432.38,78l-1.89-6.21a3.63,3.63,0,0,0-6.87,0L421.72,78a3.5,3.5,0,0,1-2.43,2.32l-6.48,1.82a3.38,3.38,0,0,0,0,6.57l6.48,1.81a3.51,3.51,0,0,1,2.43,2.33l1.9,6.2a3.62,3.62,0,0,0,6.87,0l1.89-6.2a3.51,3.51,0,0,1,2.43-2.33l6.48-1.81A3.38,3.38,0,0,0,441.29,82.17Z" transform="translate(-76.96 -69.36)"/><path class="cls-1" d="M394.88,454.65l-6.48-1.81a3.51,3.51,0,0,1-2.43-2.33l-1.89-6.2a3.63,3.63,0,0,0-6.87,0l-1.9,6.2a3.51,3.51,0,0,1-2.43,2.33l-6.48,1.81a3.39,3.39,0,0,0,0,6.58l6.48,1.81a3.5,3.5,0,0,1,2.43,2.32l1.9,6.21a3.63,3.63,0,0,0,6.87,0l1.89-6.21A3.5,3.5,0,0,1,388.4,463l6.48-1.81A3.39,3.39,0,0,0,394.88,454.65Z" transform="translate(-76.96 -69.36)"/></g></svg>