<svg id="play-icon" data-name="Layer 1" xmlns="http://www.w3.org/2000/svg" viewBox="0 0 414.67 476.65"><defs><style>.cls-1{fill:#fff;}</style></defs><g id="Layer_2" data-name="Layer 2"><path class="cls-1" d="M379.39,237.73a7.5,7.5,0,0,1-6.47-11.28,37.47,37.47,0,0,0,5.1-18.87V197.06a7.5,7.5,0,1,1,15,0v10.52A52.53,52.53,0,0,1,385.88,234,7.51,7.51,0,0,1,379.39,237.73Z" transform="translate(-106.66 -43.18)"/><path class="cls-1" d="M263.71,233a7.5,7.5,0,0,1-6.72-4.15c-3.41-6.82-3.31-11.34-3.21-16.59,0-1,.05-2,.05-3.17V197.06a7.5,7.5,0,1,1,15,0v12.06c0,1.27,0,2.41-.05,3.48-.09,4.54-.12,6.07,1.63,9.57a7.51,7.51,0,0,1-6.7,10.86Z" transform="translate(-106.66 -43.18)"/><path class="cls-1" d="M142.27,494.62a7.86,7.86,0,0,1-.83-.05,7.5,7.5,0,0,1-6.63-8.28l12.62-113.65a53.21,53.21,0,0,1,37.19-50.45l34.74-11.86a7.5,7.5,0,1,1,4.84,14.2l-34.81,11.88-.16,0a38.27,38.27,0,0,0-26.8,36.62,7.52,7.52,0,0,1-.05.82l-12.66,114A7.51,7.51,0,0,1,142.27,494.62Z" transform="translate(-106.66 -43.18)"/><path class="cls-1" d="M508.81,494.62a7.51,7.51,0,0,1-7.45-6.68l-12.66-114a7.55,7.55,0,0,1-.05-.83,38.27,38.27,0,0,0-26.8-36.61l-.15,0-45.94-15.57a7.5,7.5,0,0,1,4.82-14.2l45.87,15.54a53.2,53.2,0,0,1,37.2,50.45l12.62,113.65a7.5,7.5,0,0,1-6.63,8.28A7.86,7.86,0,0,1,508.81,494.62Z" transform="translate(-106.66 -43.18)"/><path class="cls-1" d="M328.71,519.82c-15.54,0-31.12-6.31-46.39-18.81-24.69-20.21-45.8-58.1-56.48-101.36-9.64-39-9.74-77.11-.55-106.75l-6.69,1a7.51,7.51,0,0,1-8.09-10.1c.66-1.73,16.56-42.69,48.21-66.11a7.5,7.5,0,0,1,9.85.81l15.83,16.33a9.05,9.05,0,0,0,8.85.09l15.81-8.64a26,26,0,0,1,25.4.37l14.43,8.43a9.11,9.11,0,0,0,8.7.25l22.7-15.9a7.49,7.49,0,0,1,8.94.25c1.35,1.06,33.17,26.36,43.3,57.1a7.5,7.5,0,0,1-11.7,8.29c-.87-.67-2-1.47-3.22-2.32,1.79,10.19,3.62,22.51,3.62,30.21,0,53.84-41.43,106.71-76.9,135.64-13.2,10.75-13.05,25.72-6.09,34.94,8.07,10.68,19.94,8.21,28.35,2.34a7.5,7.5,0,0,1,10.16,10.82c-.65.82-16.24,20.08-41.92,22.82A57,57,0,0,1,328.71,519.82Zm-92-243.66a7.5,7.5,0,0,1,6.87,10.51c-12.27,28-13.43,67.86-3.17,109.39,9.93,40.22,29.15,75.11,51.41,93.34,14,11.46,27.88,16.57,41.25,15.2a41.64,41.64,0,0,0,6.72-1.25,34.27,34.27,0,0,1-13.52-10.79c-11-14.59-11.75-39,8.58-55.61,52.69-42.95,71.38-93.65,71.38-124,0-13.12-6.58-44.17-6.64-44.48a7.5,7.5,0,0,1,6.89-9A158.85,158.85,0,0,0,384.15,235l-18.32,12.83a7.31,7.31,0,0,1-.66.41,24.15,24.15,0,0,1-23.85-.25l-14.43-8.43a10.87,10.87,0,0,0-10.64-.15l-15.82,8.63a24,24,0,0,1-25-1.16,7.24,7.24,0,0,1-1.2-1l-11.72-12.09c-15.46,13.3-26.37,31.41-32.43,43.23l5.52-.8A6.54,6.54,0,0,1,236.71,276.16ZM361.52,241.7h0Z" transform="translate(-106.66 -43.18)"/><path class="cls-1" d="M352.33,307.69a7.51,7.51,0,0,1-3.39-.81c-14.39-7.32-22.82-15.12-27.77-21.9-12.64,17.49-32.8,22.28-33.86,22.53A7.5,7.5,0,0,1,284,292.89h0c1-.24,24.17-5.94,30.58-28.08a7.7,7.7,0,0,1,8.69-5.53,7.25,7.25,0,0,1,6,7.8c.13,1.36,2,14,26.49,26.43a7.5,7.5,0,0,1-3.41,14.18ZM329.24,267Z" transform="translate(-106.66 -43.18)"/><path class="cls-1" d="M497.64,225.33a7.78,7.78,0,0,1-1.43-.14L322.48,191.78,147.15,216.49a7.5,7.5,0,1,1-2.09-14.85l176.56-24.89a7.52,7.52,0,0,1,2.46.07l175,33.64a7.5,7.5,0,0,1-1.4,14.87Z" transform="translate(-106.66 -43.18)"/><path class="cls-1" d="M497.62,225.33a7.43,7.43,0,0,1-3.49-.87L411.57,180.9a7.5,7.5,0,0,1,.71-13.6L466,145.83a7.49,7.49,0,0,1,5.19-.13l-2.6-4.08-41.65,8.59a7.51,7.51,0,0,1-8.83-9l7.77-34.88-74.2-47.22L308,77.82l-48.39,88.4A7.57,7.57,0,0,1,256,169.5L149.09,215.94a7.5,7.5,0,0,1-6-13.76l104.52-45.42L296,68.35a7.47,7.47,0,0,1,3.63-3.3l49.72-21.27a7.5,7.5,0,0,1,7,.57l82,52.17a7.5,7.5,0,0,1,3.29,8l-6.39,28.7,35.35-7.29a7.5,7.5,0,0,1,7.83,3.31l41.73,65.24a7.5,7.5,0,0,1-11.65,9.31l-41.58-42.14-34,13.6,68.21,36a7.5,7.5,0,0,1-3.51,14.14Z" transform="translate(-106.66 -43.18)"/><path class="cls-1" d="M257,233a7.11,7.11,0,0,1-1.51-.16L161.3,213.61a7.5,7.5,0,1,1,3-14.69l94.23,19.26A7.5,7.5,0,0,1,257,233Z" transform="translate(-106.66 -43.18)"/><path class="cls-1" d="M390.05,237.73a7.5,7.5,0,0,1-1.28-14.89L478,207.32a7.5,7.5,0,1,1,2.57,14.78l-89.26,15.52A7.18,7.18,0,0,1,390.05,237.73Z" transform="translate(-106.66 -43.18)"/><path class="cls-1" d="M414.87,181.89a7.5,7.5,0,0,1-6.05-3.06L379.28,138.7a7.53,7.53,0,0,1-1.3-6l3.41-16-21.77-8.41a7.5,7.5,0,1,1,5.41-14L392.76,105a7.51,7.51,0,0,1,4.63,8.55l-4,19,27.55,37.42a7.51,7.51,0,0,1-6,11.95Z" transform="translate(-106.66 -43.18)"/><path class="cls-1" d="M253,170.12a7.5,7.5,0,0,1-2.14-14.69l28.87-8.61A7.5,7.5,0,1,1,284,161.19l-28.87,8.61A7.21,7.21,0,0,1,253,170.12Z" transform="translate(-106.66 -43.18)"/><circle class="cls-1" cx="167.7" cy="145.93" r="11.93" transform="translate(-104.33 251.32) rotate(-82.96)"/><circle class="cls-1" cx="82.57" cy="56.75" r="7.64"/><path class="cls-1" d="M110.23,74.52l9,2.51a4.9,4.9,0,0,1,3.38,3.23l2.62,8.6c1.39,4.56,8.14,4.56,9.53,0l2.63-8.6A4.88,4.88,0,0,1,140.75,77l9-2.51a4.7,4.7,0,0,0,0-9.12l-9-2.52a4.87,4.87,0,0,1-3.37-3.22l-2.63-8.61c-1.39-4.55-8.14-4.55-9.53,0l-2.62,8.61a4.87,4.87,0,0,1-3.38,3.22l-9,2.52A4.7,4.7,0,0,0,110.23,74.52Z" transform="translate(-106.66 -43.18)"/></g></svg>