<svg id="organize-icon" data-name="Layer 1" xmlns="http://www.w3.org/2000/svg" viewBox="0 0 449.85 453.35"><defs><style>.cls-1{fill:#fff;}</style></defs><g id="Layer_2" data-name="Layer 2"><path class="cls-1" d="M300.43,353.09a46.21,46.21,0,1,1,46.21-46.21A46.26,46.26,0,0,1,300.43,353.09Zm0-77.42a31.21,31.21,0,1,0,31.21,31.21A31.24,31.24,0,0,0,300.43,275.67Z" transform="translate(-89.07 -54.83)"/><path class="cls-1" d="M353.16,508.17a7.5,7.5,0,0,1-7.5-7.5V424.32a7.51,7.51,0,0,1,9.54-7.22L400.73,430a14,14,0,0,0,3.7.5,13.28,13.28,0,0,0,6.68-1.81l71.69-42.48a13,13,0,1,0-13.2-22.33l-64.08,38a7.5,7.5,0,0,1-6.68.48l-46.79-19.24A91.29,91.29,0,0,0,318,376.19l-31.61-.27a90.93,90.93,0,0,0-36,7.05l-48,20a7.51,7.51,0,0,1-5.2.21l-59.67-19.3a13,13,0,1,0-8,24.7l65.68,21.24a12.9,12.9,0,0,0,4,.63,10.57,10.57,0,0,0,3.3-.53l43.13-12.79a7.5,7.5,0,0,1,9.63,7.19v76.34a7.5,7.5,0,0,1-15,0V434.39l-33.5,9.94a25.47,25.47,0,0,1-7.56,1.14,27.91,27.91,0,0,1-8.6-1.36l-65.69-21.24a28,28,0,0,1,17.22-53.24l57,18.45,45.44-18.95a106,106,0,0,1,41-8.21h.93l31.61.27a106.3,106.3,0,0,1,39.67,8L401.09,387,462,351a28,28,0,1,1,28.5,48.13l-71.69,42.48a28.07,28.07,0,0,1-14.33,3.91,29.23,29.23,0,0,1-7.79-1.06l-36-10.18v66.45A7.49,7.49,0,0,1,353.16,508.17Z" transform="translate(-89.07 -54.83)"/><path class="cls-1" d="M142.22,233.51a41.92,41.92,0,1,1,41.92-41.92A42,42,0,0,1,142.22,233.51Zm0-68.83a26.92,26.92,0,1,0,26.92,26.91A26.94,26.94,0,0,0,142.22,164.68Z" transform="translate(-89.07 -54.83)"/><path class="cls-1" d="M326.51,146.19a7.51,7.51,0,0,1-7.09-5l-19.7-56.76a7.49,7.49,0,0,1,4.65-9.55l57-19.6a7.49,7.49,0,0,1,9.52,4.63l19.7,56.76a7.5,7.5,0,0,1-4.65,9.55l-57,19.6A7.38,7.38,0,0,1,326.51,146.19ZM316.36,86.58l14.78,42.59L374,114.44,359.2,71.85Z" transform="translate(-89.07 -54.83)"/><path class="cls-1" d="M483.29,226.36a7.48,7.48,0,0,1-2-.26l-65.55-17.89a7.5,7.5,0,0,1-3.34-12.52l49.9-50.15a7.49,7.49,0,0,1,12.62,3.61l15.65,68a7.49,7.49,0,0,1-7.3,9.18Zm-51.15-29.23,41,11.2-9.8-42.58Z" transform="translate(-89.07 -54.83)"/><path class="cls-1" d="M136.71,293.69a5.51,5.51,0,1,1,5.51,5.51A5.51,5.51,0,0,1,136.71,293.69Z" transform="translate(-89.07 -54.83)"/><path class="cls-1" d="M127.89,82.51l-8.1-2.27a4.36,4.36,0,0,1-3-2.91l-2.37-7.75a4.53,4.53,0,0,0-8.58,0l-2.37,7.75a4.36,4.36,0,0,1-3,2.91l-8.1,2.27a4.23,4.23,0,0,0,0,8.22l8.1,2.26a4.38,4.38,0,0,1,3,2.91l2.37,7.75a4.53,4.53,0,0,0,8.58,0l2.37-7.75a4.38,4.38,0,0,1,3-2.91l8.1-2.26A4.23,4.23,0,0,0,127.89,82.51Z" transform="translate(-89.07 -54.83)"/><circle class="cls-1" cx="53.16" cy="209.69" r="8.09"/><path class="cls-1" d="M449.61,280.39a5.51,5.51,0,1,1,5.51,5.51A5.51,5.51,0,0,1,449.61,280.39Z" transform="translate(-89.07 -54.83)"/><circle class="cls-1" cx="455.12" cy="251.25" r="8.09" transform="translate(16.94 581.63) rotate(-76.71)"/><circle class="cls-1" cx="241.98" cy="142.92" r="5.51"/><circle class="cls-1" cx="241.99" cy="113.74" r="8.09"/><path class="cls-1" d="M500.11,113.73l8.1,2.27a4.38,4.38,0,0,1,3,2.91l2.37,7.75a4.53,4.53,0,0,0,8.58,0l2.37-7.75a4.36,4.36,0,0,1,3-2.91l8.1-2.27a4.23,4.23,0,0,0,0-8.21l-8.1-2.27a4.38,4.38,0,0,1-3-2.91l-2.37-7.75a4.53,4.53,0,0,0-8.58,0l-2.37,7.75a4.38,4.38,0,0,1-3,2.91l-8.1,2.27A4.23,4.23,0,0,0,500.11,113.73Z" transform="translate(-89.07 -54.83)"/><path class="cls-1" d="M456.9,80.63l4.49,1.26a2.41,2.41,0,0,1,1.69,1.61l1.31,4.3a2.52,2.52,0,0,0,4.77,0l1.31-4.3a2.41,2.41,0,0,1,1.69-1.61l4.49-1.26a2.35,2.35,0,0,0,0-4.56l-4.49-1.26a2.42,2.42,0,0,1-1.69-1.61l-1.31-4.3a2.52,2.52,0,0,0-4.77,0l-1.31,4.3a2.41,2.41,0,0,1-1.69,1.61l-4.49,1.26A2.35,2.35,0,0,0,456.9,80.63Z" transform="translate(-89.07 -54.83)"/><path class="cls-1" d="M152.26,116.17l4.5,1.26a2.41,2.41,0,0,1,1.68,1.61l1.32,4.3a2.51,2.51,0,0,0,4.76,0l1.31-4.3a2.42,2.42,0,0,1,1.69-1.61l4.49-1.26a2.35,2.35,0,0,0,0-4.56l-4.49-1.26a2.42,2.42,0,0,1-1.69-1.61l-1.31-4.3a2.51,2.51,0,0,0-4.76,0l-1.32,4.3a2.41,2.41,0,0,1-1.68,1.61l-4.5,1.26A2.35,2.35,0,0,0,152.26,116.17Z" transform="translate(-89.07 -54.83)"/></g></svg>