<svg id="sick-play-icon" data-name="Layer 1" xmlns="http://www.w3.org/2000/svg" viewBox="0 0 414.73 476.65"><defs><style>.cls-1,.cls-2,.cls-3,.cls-4{fill:#fff;}.cls-2,.cls-3,.cls-4{stroke:#fff;stroke-miterlimit:10;}.cls-2{stroke-width:15px;}.cls-3{stroke-width:22px;}.cls-4{stroke-width:4px;}</style></defs><g id="Layer_2" data-name="Layer 2"><path class="cls-1" d="M272.73,194.55a7.5,7.5,0,0,1-6.47-11.28,37.47,37.47,0,0,0,5.1-18.87V153.88a7.5,7.5,0,0,1,15,0V164.4a52.52,52.52,0,0,1-7.14,26.42A7.52,7.52,0,0,1,272.73,194.55Z" transform="translate(0.06 0.01)"/><path class="cls-1" d="M157.05,189.82a7.49,7.49,0,0,1-6.72-4.15c-3.41-6.82-3.31-11.34-3.21-16.59,0-1,0-2,0-3.17v-12a7.5,7.5,0,0,1,15,0v12.06c0,1.27,0,2.41,0,3.48-.09,4.54-.12,6.07,1.63,9.57a7.51,7.51,0,0,1-3.37,10.07,7.42,7.42,0,0,1-3.33.79Z" transform="translate(0.06 0.01)"/><path class="cls-1" d="M35.61,451.44a7.7,7.7,0,0,1-.83-.05,7.5,7.5,0,0,1-6.63-8.28h0L40.77,329.46A53.21,53.21,0,0,1,78,279l34.74-11.86a7.5,7.5,0,0,1,4.84,14.2h0L82.73,293.23h-.16a38.26,38.26,0,0,0-26.8,36.62,7.52,7.52,0,0,1-.05.82l-12.66,114A7.51,7.51,0,0,1,35.61,451.44Z" transform="translate(0.06 0.01)"/><path class="cls-1" d="M402.15,451.44a7.51,7.51,0,0,1-7.45-6.68L382,330.76a7.7,7.7,0,0,1-.05-.83,38.28,38.28,0,0,0-26.8-36.61H355L309.1,277.75a7.5,7.5,0,0,1,4.82-14.2l45.87,15.54A53.2,53.2,0,0,1,397,329.54l12.62,113.65a7.5,7.5,0,0,1-6.63,8.28h0C402.7,451.47,402.43,451.46,402.15,451.44Z" transform="translate(0.06 0.01)"/><path class="cls-1" d="M222.05,476.64c-15.54,0-31.12-6.31-46.39-18.81-24.69-20.21-45.8-58.1-56.48-101.36-9.64-39-9.74-77.11-.55-106.75l-6.69,1a7.51,7.51,0,0,1-8.09-10.1c.66-1.73,16.56-42.69,48.21-66.11a7.5,7.5,0,0,1,9.85.81l15.83,16.33a9.05,9.05,0,0,0,8.85.09l15.81-8.64a26,26,0,0,1,25.4.37l14.43,8.43a9.11,9.11,0,0,0,8.7.25l22.7-15.9a7.49,7.49,0,0,1,8.94.25c1.35,1.06,33.17,26.36,43.3,57.1a7.5,7.5,0,0,1-11.7,8.29c-.87-.67-2-1.47-3.22-2.32,1.79,10.19,3.62,22.51,3.62,30.21,0,53.84-41.43,106.71-76.9,135.64-13.2,10.75-13,25.72-6.09,34.94,8.07,10.68,19.94,8.21,28.35,2.34a7.5,7.5,0,0,1,10.16,10.82c-.65.82-16.24,20.08-41.92,22.82A56.87,56.87,0,0,1,222.05,476.64ZM130.05,233a7.5,7.5,0,0,1,7.5,7.5,7.42,7.42,0,0,1-.63,3c-12.27,28-13.43,67.86-3.17,109.39,9.93,40.22,29.15,75.11,51.41,93.34,14,11.46,27.88,16.57,41.25,15.2a41.43,41.43,0,0,0,6.72-1.25,34.26,34.26,0,0,1-13.52-10.79c-11-14.59-11.75-39,8.58-55.61,52.69-42.95,71.38-93.65,71.38-124,0-13.12-6.58-44.17-6.64-44.48a7.49,7.49,0,0,1,6.89-9,158.93,158.93,0,0,0-22.33-24.47l-18.32,12.83a5.59,5.59,0,0,1-.66.41,24.15,24.15,0,0,1-23.85-.25l-14.43-8.43a10.87,10.87,0,0,0-10.64-.15l-15.82,8.63a24,24,0,0,1-25-1.16,7.16,7.16,0,0,1-1.2-1l-11.72-12.09c-15.46,13.3-26.37,31.41-32.43,43.23l5.52-.8a6.89,6.89,0,0,1,1.11-.06Zm124.81-34.46Z" transform="translate(0.06 0.01)"/><path class="cls-1" d="M245.67,264.51a7.52,7.52,0,0,1-3.39-.81c-14.39-7.32-22.82-15.12-27.77-21.9-12.64,17.49-32.8,22.28-33.86,22.53a7.5,7.5,0,0,1-3.31-14.62h0c1-.24,24.17-5.94,30.58-28.08a7.71,7.71,0,0,1,8.69-5.53,7.25,7.25,0,0,1,6,7.8c.13,1.36,2,14,26.49,26.43a7.5,7.5,0,0,1-3.41,14.18Z" transform="translate(0.06 0.01)"/><path class="cls-1" d="M391,182.15a7.62,7.62,0,0,1-1.43-.14L215.82,148.6,40.49,173.31a7.5,7.5,0,0,1-2.42-14.8l.33,0L215,133.57a7.52,7.52,0,0,1,2.46.07l175,33.64a7.5,7.5,0,0,1-1.4,14.87Z" transform="translate(0.06 0.01)"/><path class="cls-1" d="M391,182.15a7.43,7.43,0,0,1-3.49-.87l-82.56-43.56a7.5,7.5,0,0,1,.71-13.6l53.72-21.47a7.48,7.48,0,0,1,5.19-.13l-2.6-4.08L320.28,107a7.51,7.51,0,0,1-8.83-9l7.77-34.88L245,15.93,201.34,34.64,153,123a7.62,7.62,0,0,1-3.61,3.28L42.43,172.76a7.51,7.51,0,1,1-6-13.76L141,113.58l48.39-88.41a7.43,7.43,0,0,1,3.63-3.3L242.69.6a7.5,7.5,0,0,1,7,.57l82,52.17a7.49,7.49,0,0,1,3.29,8L328.59,90l35.35-7.29a7.49,7.49,0,0,1,7.83,3.31L413.5,151.3a7.5,7.5,0,0,1-11.65,9.31l-41.58-42.14-34,13.6,68.21,36A7.5,7.5,0,0,1,391,182.21Z" transform="translate(0.06 0.01)"/><path class="cls-1" d="M150.34,189.82a7,7,0,0,1-1.51-.16L54.64,170.43a7.5,7.5,0,0,1,2.56-14.78l.44.09L151.87,175a7.5,7.5,0,0,1-1.53,14.82Z" transform="translate(0.06 0.01)"/><path class="cls-1" d="M283.39,194.55a7.5,7.5,0,0,1-1.28-14.89l89.23-15.52a7.5,7.5,0,1,1,2.57,14.78l-89.26,15.52A7.66,7.66,0,0,1,283.39,194.55Z" transform="translate(0.06 0.01)"/><path class="cls-1" d="M308.21,138.71a7.48,7.48,0,0,1-6-3.06L272.62,95.52a7.51,7.51,0,0,1-1.3-6l3.41-16L253,65.11a7.5,7.5,0,0,1,5.41-14L286.1,61.82a7.51,7.51,0,0,1,4.63,8.55l-4,19,27.55,37.42a7.51,7.51,0,0,1-6,12Z" transform="translate(0.06 0.01)"/><path class="cls-1" d="M146.34,126.94a7.5,7.5,0,0,1-2.14-14.69l28.87-8.61a7.5,7.5,0,1,1,4.77,14.22,4.74,4.74,0,0,1-.5.15l-28.87,8.61A7.33,7.33,0,0,1,146.34,126.94Z" transform="translate(0.06 0.01)"/><circle class="cls-1" cx="61.05" cy="102.77" r="11.93" transform="translate(-48.37 150.78) rotate(-82.96)"/><circle class="cls-1" cx="82.63" cy="56.76" r="7.64"/><path class="cls-1" d="M3.57,31.34l9,2.51A4.92,4.92,0,0,1,16,37.08l2.62,8.6c1.39,4.56,8.14,4.56,9.53,0l2.63-8.6a4.87,4.87,0,0,1,3.36-3.26l9-2.51a4.7,4.7,0,0,0,0-9.12l-9-2.52a4.85,4.85,0,0,1-3.37-3.22L28.09,7.84c-1.39-4.55-8.14-4.55-9.53,0l-2.62,8.61a4.88,4.88,0,0,1-3.38,3.22l-9,2.52a4.7,4.7,0,0,0,0,9.15Z" transform="translate(0.06 0.01)"/></g><line class="cls-2" x1="239.21" y1="146.23" x2="227.61" y2="192.9"/><line class="cls-3" x1="153.02" y1="165.56" x2="99.21" y2="161.36"/><line class="cls-3" x1="335.82" y1="174.79" x2="282.01" y2="170.59"/><line class="cls-4" x1="250.21" y1="151.23" x2="238.61" y2="197.9"/></svg>